<svg xmlns="http://www.w3.org/2000/svg" viewBox="0 0 64 64">
  <defs>
    <linearGradient id="g1" x1="0%" y1="0%" x2="100%" y2="100%">
      <stop offset="0%" stop-color="#c77dff"/>
      <stop offset="100%" stop-color="#ff6b9d"/>
    </linearGradient>
    <linearGradient id="g2" x1="0%" y1="0%" x2="100%" y2="100%">
      <stop offset="0%" stop-color="#7209b7"/>
      <stop offset="100%" stop-color="#c9184a"/>
    </linearGradient>
  </defs>

  <!-- Background circle -->
  <circle cx="32" cy="32" r="30" fill="url(#g2)"/>

  <!-- Big center 4-pointed star -->
  <path d="M32 10 C32 10 33.5 24 38 28 C42 32 54 32 54 32 C54 32 42 32 38 36 C33.5 40 32 54 32 54 C32 54 30.5 40 26 36 C22 32 10 32 10 32 C10 32 22 32 26 28 C30.5 24 32 10 32 10Z"
        fill="url(#g1)"/>

  <!-- Top-right small sparkle -->
  <path d="M47 14 C47 14 47.6 18.4 49.2 20 C50.8 21.6 55 22 55 22 C55 22 50.8 22.4 49.2 24 C47.6 25.6 47 30 47 30 C47 30 46.4 25.6 44.8 24 C43.2 22.4 39 22 39 22 C39 22 43.2 21.6 44.8 20 C46.4 18.4 47 14 47 14Z"
        fill="#ffd166" opacity="0.95"/>

  <!-- Bottom-left small sparkle -->
  <path d="M17 34 C17 34 17.5 37.5 18.8 38.8 C20 40 23.5 40.5 23.5 40.5 C23.5 40.5 20 41 18.8 42.2 C17.5 43.5 17 47 17 47 C17 47 16.5 43.5 15.2 42.2 C14 41 10.5 40.5 10.5 40.5 C10.5 40.5 14 40 15.2 38.8 C16.5 37.5 17 34 17 34Z"
        fill="#fff" opacity="0.8"/>

  <!-- Tiny dot accents -->
  <circle cx="48" cy="38" r="2" fill="#ffd166" opacity="0.9"/>
  <circle cx="16" cy="22" r="1.5" fill="#fff" opacity="0.7"/>
  <circle cx="42" cy="48" r="1.5" fill="#c77dff" opacity="0.9"/>
</svg>
